<mxfile host="app.diagrams.net" modified="2022-12-27T04:33:18.170Z" agent="5.0 (Windows)" version="20.7.4" etag="5WesJFZhQ483aTSNTuZD" type="github" pages="2">
  <diagram id="syg8G56wuBU-4y49v1hL" name="Halaman-1">
    <mxGraphModel dx="880" dy="470" grid="1" gridSize="10" guides="1" tooltips="1" connect="1" arrows="1" fold="1" page="1" pageScale="1" pageWidth="827" pageHeight="1169" math="0" shadow="0">
      <root>
        <mxCell id="0" />
        <mxCell id="1" parent="0" />
        <mxCell id="W7JhciyZBj-o5BGkd52m-4" value="" style="group" vertex="1" connectable="0" parent="1">
          <mxGeometry x="90" y="100" width="460" height="60" as="geometry" />
        </mxCell>
        <mxCell id="W7JhciyZBj-o5BGkd52m-1" value="Anggota" style="rounded=0;whiteSpace=wrap;html=1;" vertex="1" parent="W7JhciyZBj-o5BGkd52m-4">
          <mxGeometry width="120" height="60" as="geometry" />
        </mxCell>
        <mxCell id="W7JhciyZBj-o5BGkd52m-2" value="Petugas" style="rounded=0;whiteSpace=wrap;html=1;" vertex="1" parent="W7JhciyZBj-o5BGkd52m-4">
          <mxGeometry x="170" width="120" height="60" as="geometry" />
        </mxCell>
        <mxCell id="W7JhciyZBj-o5BGkd52m-3" value="Buku" style="rounded=0;whiteSpace=wrap;html=1;" vertex="1" parent="W7JhciyZBj-o5BGkd52m-4">
          <mxGeometry x="340" width="120" height="60" as="geometry" />
        </mxCell>
        <mxCell id="W7JhciyZBj-o5BGkd52m-10" value="" style="group" vertex="1" connectable="0" parent="1">
          <mxGeometry x="70" y="310" width="460" height="200" as="geometry" />
        </mxCell>
        <mxCell id="W7JhciyZBj-o5BGkd52m-6" value="Anggota" style="rounded=0;whiteSpace=wrap;html=1;" vertex="1" parent="W7JhciyZBj-o5BGkd52m-10">
          <mxGeometry y="50" width="120" height="60" as="geometry" />
        </mxCell>
        <mxCell id="W7JhciyZBj-o5BGkd52m-7" value="Petugas" style="rounded=0;whiteSpace=wrap;html=1;" vertex="1" parent="W7JhciyZBj-o5BGkd52m-10">
          <mxGeometry x="170" y="140" width="120" height="60" as="geometry" />
        </mxCell>
        <mxCell id="W7JhciyZBj-o5BGkd52m-8" value="Buku" style="rounded=0;whiteSpace=wrap;html=1;" vertex="1" parent="W7JhciyZBj-o5BGkd52m-10">
          <mxGeometry x="340" y="50" width="120" height="60" as="geometry" />
        </mxCell>
        <mxCell id="W7JhciyZBj-o5BGkd52m-9" value="Sistem penjualan" style="ellipse;whiteSpace=wrap;html=1;aspect=fixed;" vertex="1" parent="W7JhciyZBj-o5BGkd52m-10">
          <mxGeometry x="190" width="80" height="80" as="geometry" />
        </mxCell>
        <mxCell id="W7JhciyZBj-o5BGkd52m-17" value="" style="edgeStyle=orthogonalEdgeStyle;rounded=0;orthogonalLoop=1;jettySize=auto;html=1;" edge="1" parent="1" source="W7JhciyZBj-o5BGkd52m-12" target="W7JhciyZBj-o5BGkd52m-15">
          <mxGeometry relative="1" as="geometry" />
        </mxCell>
        <mxCell id="W7JhciyZBj-o5BGkd52m-12" value="Anggota" style="rounded=0;whiteSpace=wrap;html=1;" vertex="1" parent="1">
          <mxGeometry x="170" y="672.5" width="120" height="35" as="geometry" />
        </mxCell>
        <mxCell id="W7JhciyZBj-o5BGkd52m-13" value="Petugas" style="rounded=0;whiteSpace=wrap;html=1;" vertex="1" parent="1">
          <mxGeometry x="400" y="840" width="120" height="30" as="geometry" />
        </mxCell>
        <mxCell id="W7JhciyZBj-o5BGkd52m-19" value="" style="edgeStyle=orthogonalEdgeStyle;rounded=0;orthogonalLoop=1;jettySize=auto;html=1;" edge="1" parent="1" source="W7JhciyZBj-o5BGkd52m-14" target="W7JhciyZBj-o5BGkd52m-15">
          <mxGeometry relative="1" as="geometry" />
        </mxCell>
        <mxCell id="W7JhciyZBj-o5BGkd52m-14" value="Buku" style="rounded=0;whiteSpace=wrap;html=1;" vertex="1" parent="1">
          <mxGeometry x="640" y="672.5" width="120" height="35" as="geometry" />
        </mxCell>
        <mxCell id="W7JhciyZBj-o5BGkd52m-20" value="" style="edgeStyle=orthogonalEdgeStyle;rounded=0;orthogonalLoop=1;jettySize=auto;html=1;" edge="1" parent="1" source="W7JhciyZBj-o5BGkd52m-15" target="W7JhciyZBj-o5BGkd52m-13">
          <mxGeometry relative="1" as="geometry" />
        </mxCell>
        <mxCell id="W7JhciyZBj-o5BGkd52m-21" style="edgeStyle=orthogonalEdgeStyle;rounded=0;orthogonalLoop=1;jettySize=auto;html=1;entryX=0.5;entryY=0;entryDx=0;entryDy=0;" edge="1" parent="1" source="W7JhciyZBj-o5BGkd52m-15" target="W7JhciyZBj-o5BGkd52m-12">
          <mxGeometry relative="1" as="geometry">
            <Array as="points">
              <mxPoint x="230" y="653" />
            </Array>
          </mxGeometry>
        </mxCell>
        <mxCell id="W7JhciyZBj-o5BGkd52m-22" style="edgeStyle=orthogonalEdgeStyle;rounded=0;orthogonalLoop=1;jettySize=auto;html=1;entryX=0.5;entryY=0;entryDx=0;entryDy=0;" edge="1" parent="1" source="W7JhciyZBj-o5BGkd52m-15" target="W7JhciyZBj-o5BGkd52m-14">
          <mxGeometry relative="1" as="geometry">
            <Array as="points">
              <mxPoint x="700" y="650" />
            </Array>
          </mxGeometry>
        </mxCell>
        <mxCell id="W7JhciyZBj-o5BGkd52m-15" value="Sistem penjualan" style="ellipse;whiteSpace=wrap;html=1;aspect=fixed;" vertex="1" parent="1">
          <mxGeometry x="400" y="630" width="120" height="120" as="geometry" />
        </mxCell>
        <mxCell id="W7JhciyZBj-o5BGkd52m-23" value="dt_pinjam" style="text;html=1;align=center;verticalAlign=middle;resizable=0;points=[];autosize=1;strokeColor=none;fillColor=none;" vertex="1" parent="1">
          <mxGeometry x="270" y="620" width="80" height="30" as="geometry" />
        </mxCell>
        <mxCell id="W7JhciyZBj-o5BGkd52m-24" value="dt_anggota" style="text;html=1;align=center;verticalAlign=middle;resizable=0;points=[];autosize=1;strokeColor=none;fillColor=none;" vertex="1" parent="1">
          <mxGeometry x="305" y="690" width="90" height="30" as="geometry" />
        </mxCell>
        <mxCell id="W7JhciyZBj-o5BGkd52m-25" value="dt_pesan" style="text;html=1;align=center;verticalAlign=middle;resizable=0;points=[];autosize=1;strokeColor=none;fillColor=none;" vertex="1" parent="1">
          <mxGeometry x="305" y="707.5" width="80" height="30" as="geometry" />
        </mxCell>
        <mxCell id="W7JhciyZBj-o5BGkd52m-26" value="lapBuku" style="text;html=1;align=center;verticalAlign=middle;resizable=0;points=[];autosize=1;strokeColor=none;fillColor=none;" vertex="1" parent="1">
          <mxGeometry x="379" y="770" width="70" height="30" as="geometry" />
        </mxCell>
        <mxCell id="W7JhciyZBj-o5BGkd52m-27" value="lapPinjam" style="text;html=1;align=center;verticalAlign=middle;resizable=0;points=[];autosize=1;strokeColor=none;fillColor=none;" vertex="1" parent="1">
          <mxGeometry x="374" y="750" width="80" height="30" as="geometry" />
        </mxCell>
        <mxCell id="W7JhciyZBj-o5BGkd52m-28" value="lapAnggota" style="text;html=1;align=center;verticalAlign=middle;resizable=0;points=[];autosize=1;strokeColor=none;fillColor=none;" vertex="1" parent="1">
          <mxGeometry x="369" y="790" width="90" height="30" as="geometry" />
        </mxCell>
        <mxCell id="W7JhciyZBj-o5BGkd52m-29" value="dt_buku" style="text;html=1;align=center;verticalAlign=middle;resizable=0;points=[];autosize=1;strokeColor=none;fillColor=none;" vertex="1" parent="1">
          <mxGeometry x="555" y="700" width="70" height="30" as="geometry" />
        </mxCell>
      </root>
    </mxGraphModel>
  </diagram>
  <diagram id="omx-j8BEg3Ka3YBkPbBn" name="Halaman-2">
    <mxGraphModel dx="1257" dy="671" grid="1" gridSize="10" guides="1" tooltips="1" connect="1" arrows="1" fold="1" page="1" pageScale="1" pageWidth="1169" pageHeight="827" math="0" shadow="0">
      <root>
        <mxCell id="0" />
        <mxCell id="1" parent="0" />
        <mxCell id="tuCzgL4_rNX0rvhltHsm-10" value="" style="html=1;dashed=0;whitespace=wrap;shape=partialRectangle;right=0;left=0;" vertex="1" parent="1">
          <mxGeometry x="710" y="610" width="100" height="30" as="geometry" />
        </mxCell>
        <mxCell id="tuCzgL4_rNX0rvhltHsm-11" value="" style="html=1;dashed=0;whitespace=wrap;shape=partialRectangle;right=0;left=0;" vertex="1" parent="1">
          <mxGeometry x="820" y="610" width="100" height="30" as="geometry" />
        </mxCell>
        <mxCell id="tuCzgL4_rNX0rvhltHsm-1" value="" style="ellipse;whiteSpace=wrap;html=1;aspect=fixed;" vertex="1" parent="1">
          <mxGeometry x="720" y="50" width="80" height="80" as="geometry" />
        </mxCell>
        <mxCell id="tuCzgL4_rNX0rvhltHsm-2" value="" style="ellipse;whiteSpace=wrap;html=1;aspect=fixed;" vertex="1" parent="1">
          <mxGeometry x="630" y="240" width="80" height="80" as="geometry" />
        </mxCell>
        <mxCell id="tuCzgL4_rNX0rvhltHsm-3" value="" style="ellipse;whiteSpace=wrap;html=1;aspect=fixed;" vertex="1" parent="1">
          <mxGeometry x="510" y="340" width="80" height="80" as="geometry" />
        </mxCell>
        <mxCell id="tuCzgL4_rNX0rvhltHsm-40" style="edgeStyle=orthogonalEdgeStyle;curved=1;rounded=0;orthogonalLoop=1;jettySize=auto;html=1;entryX=0.25;entryY=1;entryDx=0;entryDy=0;" edge="1" parent="1" source="tuCzgL4_rNX0rvhltHsm-4" target="tuCzgL4_rNX0rvhltHsm-9">
          <mxGeometry relative="1" as="geometry" />
        </mxCell>
        <mxCell id="tuCzgL4_rNX0rvhltHsm-4" value="" style="ellipse;whiteSpace=wrap;html=1;aspect=fixed;" vertex="1" parent="1">
          <mxGeometry x="430" y="510" width="80" height="80" as="geometry" />
        </mxCell>
        <mxCell id="tuCzgL4_rNX0rvhltHsm-5" value="" style="ellipse;whiteSpace=wrap;html=1;aspect=fixed;" vertex="1" parent="1">
          <mxGeometry x="890" y="450" width="80" height="80" as="geometry" />
        </mxCell>
        <mxCell id="tuCzgL4_rNX0rvhltHsm-24" style="edgeStyle=orthogonalEdgeStyle;curved=1;rounded=0;orthogonalLoop=1;jettySize=auto;html=1;entryX=0;entryY=1;entryDx=0;entryDy=0;" edge="1" parent="1" source="tuCzgL4_rNX0rvhltHsm-6" target="tuCzgL4_rNX0rvhltHsm-1">
          <mxGeometry relative="1" as="geometry" />
        </mxCell>
        <mxCell id="tuCzgL4_rNX0rvhltHsm-26" style="edgeStyle=orthogonalEdgeStyle;curved=1;rounded=0;orthogonalLoop=1;jettySize=auto;html=1;entryX=0;entryY=0.5;entryDx=0;entryDy=0;" edge="1" parent="1" source="tuCzgL4_rNX0rvhltHsm-6" target="tuCzgL4_rNX0rvhltHsm-3">
          <mxGeometry relative="1" as="geometry" />
        </mxCell>
        <mxCell id="tuCzgL4_rNX0rvhltHsm-28" style="edgeStyle=orthogonalEdgeStyle;curved=1;rounded=0;orthogonalLoop=1;jettySize=auto;html=1;entryX=0;entryY=0.5;entryDx=0;entryDy=0;" edge="1" parent="1" source="tuCzgL4_rNX0rvhltHsm-6" target="tuCzgL4_rNX0rvhltHsm-2">
          <mxGeometry relative="1" as="geometry" />
        </mxCell>
        <mxCell id="tuCzgL4_rNX0rvhltHsm-38" style="edgeStyle=orthogonalEdgeStyle;curved=1;rounded=0;orthogonalLoop=1;jettySize=auto;html=1;entryX=0;entryY=0.5;entryDx=0;entryDy=0;exitX=0;exitY=0.5;exitDx=0;exitDy=0;" edge="1" parent="1" source="tuCzgL4_rNX0rvhltHsm-6" target="tuCzgL4_rNX0rvhltHsm-4">
          <mxGeometry relative="1" as="geometry" />
        </mxCell>
        <mxCell id="tuCzgL4_rNX0rvhltHsm-6" value="" style="rounded=0;whiteSpace=wrap;html=1;" vertex="1" parent="1">
          <mxGeometry x="300" y="170" width="120" height="60" as="geometry" />
        </mxCell>
        <mxCell id="tuCzgL4_rNX0rvhltHsm-25" style="edgeStyle=orthogonalEdgeStyle;curved=1;rounded=0;orthogonalLoop=1;jettySize=auto;html=1;entryX=0.75;entryY=0;entryDx=0;entryDy=0;" edge="1" parent="1" source="tuCzgL4_rNX0rvhltHsm-1" target="tuCzgL4_rNX0rvhltHsm-6">
          <mxGeometry relative="1" as="geometry" />
        </mxCell>
        <mxCell id="tuCzgL4_rNX0rvhltHsm-27" style="edgeStyle=orthogonalEdgeStyle;curved=1;rounded=0;orthogonalLoop=1;jettySize=auto;html=1;entryX=0.5;entryY=1;entryDx=0;entryDy=0;" edge="1" parent="1" source="tuCzgL4_rNX0rvhltHsm-3" target="tuCzgL4_rNX0rvhltHsm-6">
          <mxGeometry relative="1" as="geometry" />
        </mxCell>
        <mxCell id="tuCzgL4_rNX0rvhltHsm-33" style="edgeStyle=orthogonalEdgeStyle;curved=1;rounded=0;orthogonalLoop=1;jettySize=auto;html=1;entryX=1;entryY=0.5;entryDx=0;entryDy=0;" edge="1" parent="1" source="tuCzgL4_rNX0rvhltHsm-7" target="tuCzgL4_rNX0rvhltHsm-1">
          <mxGeometry relative="1" as="geometry" />
        </mxCell>
        <mxCell id="tuCzgL4_rNX0rvhltHsm-7" value="" style="html=1;dashed=0;whitespace=wrap;shape=partialRectangle;right=0;left=0;" vertex="1" parent="1">
          <mxGeometry x="790" y="160" width="100" height="30" as="geometry" />
        </mxCell>
        <mxCell id="tuCzgL4_rNX0rvhltHsm-34" style="edgeStyle=orthogonalEdgeStyle;curved=1;rounded=0;orthogonalLoop=1;jettySize=auto;html=1;entryX=0;entryY=0.5;entryDx=0;entryDy=0;" edge="1" parent="1" source="tuCzgL4_rNX0rvhltHsm-1" target="tuCzgL4_rNX0rvhltHsm-7">
          <mxGeometry relative="1" as="geometry" />
        </mxCell>
        <mxCell id="tuCzgL4_rNX0rvhltHsm-32" style="edgeStyle=orthogonalEdgeStyle;curved=1;rounded=0;orthogonalLoop=1;jettySize=auto;html=1;entryX=1;entryY=0.5;entryDx=0;entryDy=0;" edge="1" parent="1" source="tuCzgL4_rNX0rvhltHsm-8" target="tuCzgL4_rNX0rvhltHsm-2">
          <mxGeometry relative="1" as="geometry" />
        </mxCell>
        <mxCell id="tuCzgL4_rNX0rvhltHsm-35" style="edgeStyle=orthogonalEdgeStyle;curved=1;rounded=0;orthogonalLoop=1;jettySize=auto;html=1;entryX=0.5;entryY=1;entryDx=0;entryDy=0;" edge="1" parent="1" source="tuCzgL4_rNX0rvhltHsm-8" target="tuCzgL4_rNX0rvhltHsm-1">
          <mxGeometry relative="1" as="geometry" />
        </mxCell>
        <mxCell id="tuCzgL4_rNX0rvhltHsm-8" value="" style="html=1;dashed=0;whitespace=wrap;shape=partialRectangle;right=0;left=0;" vertex="1" parent="1">
          <mxGeometry x="710" y="340" width="100" height="30" as="geometry" />
        </mxCell>
        <mxCell id="tuCzgL4_rNX0rvhltHsm-31" style="edgeStyle=orthogonalEdgeStyle;curved=1;rounded=0;orthogonalLoop=1;jettySize=auto;html=1;entryX=0;entryY=0.75;entryDx=0;entryDy=0;" edge="1" parent="1" source="tuCzgL4_rNX0rvhltHsm-2" target="tuCzgL4_rNX0rvhltHsm-8">
          <mxGeometry relative="1" as="geometry" />
        </mxCell>
        <mxCell id="tuCzgL4_rNX0rvhltHsm-36" style="edgeStyle=orthogonalEdgeStyle;curved=1;rounded=0;orthogonalLoop=1;jettySize=auto;html=1;entryX=1;entryY=0.5;entryDx=0;entryDy=0;" edge="1" parent="1" source="tuCzgL4_rNX0rvhltHsm-9" target="tuCzgL4_rNX0rvhltHsm-3">
          <mxGeometry relative="1" as="geometry" />
        </mxCell>
        <mxCell id="tuCzgL4_rNX0rvhltHsm-41" style="edgeStyle=orthogonalEdgeStyle;curved=1;rounded=0;orthogonalLoop=1;jettySize=auto;html=1;entryX=0.5;entryY=1;entryDx=0;entryDy=0;exitX=0.5;exitY=1;exitDx=0;exitDy=0;" edge="1" parent="1" source="tuCzgL4_rNX0rvhltHsm-9" target="tuCzgL4_rNX0rvhltHsm-4">
          <mxGeometry relative="1" as="geometry" />
        </mxCell>
        <mxCell id="tuCzgL4_rNX0rvhltHsm-9" value="" style="html=1;dashed=0;whitespace=wrap;shape=partialRectangle;right=0;left=0;" vertex="1" parent="1">
          <mxGeometry x="590" y="460" width="100" height="30" as="geometry" />
        </mxCell>
        <mxCell id="tuCzgL4_rNX0rvhltHsm-37" style="edgeStyle=orthogonalEdgeStyle;curved=1;rounded=0;orthogonalLoop=1;jettySize=auto;html=1;entryX=0;entryY=0.5;entryDx=0;entryDy=0;" edge="1" parent="1" source="tuCzgL4_rNX0rvhltHsm-3" target="tuCzgL4_rNX0rvhltHsm-9">
          <mxGeometry relative="1" as="geometry" />
        </mxCell>
        <mxCell id="tuCzgL4_rNX0rvhltHsm-12" value="" style="html=1;dashed=0;whitespace=wrap;shape=partialRectangle;right=0;left=0;" vertex="1" parent="1">
          <mxGeometry x="890" y="404" width="100" height="30" as="geometry" />
        </mxCell>
        <mxCell id="tuCzgL4_rNX0rvhltHsm-13" value="" style="html=1;dashed=0;whitespace=wrap;" vertex="1" parent="1">
          <mxGeometry x="1090" y="150" width="100" height="50" as="geometry" />
        </mxCell>
        <mxCell id="tuCzgL4_rNX0rvhltHsm-14" value="" style="html=1;dashed=0;whitespace=wrap;" vertex="1" parent="1">
          <mxGeometry x="1020" y="550" width="100" height="50" as="geometry" />
        </mxCell>
        <mxCell id="tuCzgL4_rNX0rvhltHsm-16" value="" style="ellipse;whiteSpace=wrap;html=1;aspect=fixed;" vertex="1" parent="1">
          <mxGeometry x="980" y="310" width="80" height="80" as="geometry" />
        </mxCell>
      </root>
    </mxGraphModel>
  </diagram>
</mxfile>
